<?xml version="1.0" encoding="utf-8"?>
<!-- Generator: Adobe Illustrator 22.0.0, SVG Export Plug-In . SVG Version: 6.00 Build 0)  -->
<svg version="1.1" id="Layer_1" xmlns="http://www.w3.org/2000/svg" xmlns:xlink="http://www.w3.org/1999/xlink" x="0px" y="0px"
	 viewBox="0 0 841.9 148.3" style="enable-background:new 0 0 841.9 148.3;" xml:space="preserve">
<style type="text/css">
	.st0{fill:#78C043;}
	.st1{fill:#020202;}
	.st2{fill:#FFCE06;}
</style>
<g>
	<path class="st0" d="M104.8,106.2"/>
	<polygon class="st1" points="23.3,27 39.3,27 39.3,102.3 75.3,102.3 75.3,118.7 23.3,118.7 	"/>
	<path class="st1" d="M163.5,52.4h16.4v6c0,0,6.6-6.4,14.5-7.2c0,0,12.8-1.3,18.3,8.3c0,0,12.8-11.3,27.5-7c0,0,11.7,2.6,14.3,16.4
		v49.9H240V75.2c0,0-2.6-8.9-14.1-8.1c0,0-6.6,1.9-8.1,8.7v42.8h-15.8v-43c0,0-1.9-8.5-11.9-8.5c0,0-7.5,0.7-9.8,6.6v44.9h-16.8
		V52.4z"/>
	<rect x="270.1" y="27" class="st2" width="15.8" height="15.6"/>
	<rect x="270.1" y="53.3" class="st1" width="15.8" height="65.4"/>
	<path class="st1" d="M301.6,53.3h15.8v4.7c0,0,10.2-4.7,16.6-4.7c0,0,13.4-0.8,20.9,6.9c0,0,7.7,5.9,8.7,17.8v40.7h-14.1V79.9
		c0,0-2.9-14.5-18.3-13.7c0,0-12.7,0.6-15.2,12.9v39.6h-14.4V53.3z"/>
	<path class="st2" d="M677,57.5h15.8v4.7c0,0,10.2-4.7,16.6-4.7c0,0,13.4-0.8,20.9,6.9c0,0,7.7,5.9,8.7,17.8v40.7h-14.1V84.1
		c0,0-2.9-14.5-18.3-13.7c0,0-12.7,0.6-15.2,12.9v39.6H677V57.5z"/>
	<path class="st1" d="M147.4,118.7h-15.8V114c0,0-10.2,4.7-16.6,4.7c0,0-13.4,0.8-20.9-6.9c0,0-7.7-5.9-8.7-17.8V53.3h14.1V92
		c0,0,2.9,14.5,18.3,13.7c0,0,12.7-0.6,15.2-12.9V53.3h14.4V118.7z"/>
	<g>
		<path d="M418.2,103.2l6,14.8c0,0-9.2,3.9-18.4,2.1c0,0-20.5-2.9-27.1-22.9c0,0-4.4-12.8,0.5-23.8c0,0,5.4-15.8,23.1-20.8
			c0,0,14.7-4.5,27.7,4.2v-3.6h15.7v65.4h-15.7V82.2c0,0-1.5-13.1-15.2-16c0,0-9.2-2.7-17.3,5c0,0-5.1,4.9-5.8,11.5
			c-0.7,7,1.8,11.2,3.8,14.3c1.7,2.8,6.5,6,11.1,7C413.5,105.6,418.2,103.2,418.2,103.2z"/>
	</g>
	<path class="st1" d="M459,40.3l16.2-4v24.9h8.9l4.5,15.3h-13.8v21.3c0,0-0.2,3.8,5.8,4.9h11.3l3.8,16h-17.3c0,0-16.2-2.8-19.4-18.8
		V40.3z"/>
	<g>
		<path class="st1" d="M568.8,72.3c-4-8.3-13.4-18.7-29.6-19.7c0,0-21.5-2.3-32.7,19.5c0,0-3.2,6.1-3.4,13.9
			c-0.3,10.6,4,22.2,15.2,29.7c0,0,14.2,11.2,33.6,2.9c0,0,5.2-2.8,6.7-4c1.6-1.4,4.7-4.5,4.7-4.5l-15.5-7.4c0,0-6.5,4.6-14.5,2.7
			c0,0-8-0.6-13.5-10.3l52.3,0.2C572,95.2,574,83.2,568.8,72.3z M519.9,76.3c6.5-11.9,18.8-10.5,18.8-10.5
			c11.8,1.3,15.7,10.5,15.7,10.5H519.9z"/>
	</g>
	<path class="st2" d="M818.7,72.3c-4-8.3-13.4-18.7-29.6-19.7c0,0-21.5-2.3-32.7,19.5c0,0-3.2,6.1-3.4,13.9
		c-0.3,10.6,4,22.2,15.2,29.7c0,0,14.2,11.2,33.6,2.9c0,0,5.2-2.8,6.7-4c1.6-1.4,4.7-4.5,4.7-4.5l-15.5-7.4c0,0-6.5,4.6-14.5,2.7
		c0,0-8-0.6-13.5-10.3l52.3,0.2C821.9,95.2,823.9,83.2,818.7,72.3z M769.8,76.3c6.5-11.9,18.8-10.5,18.8-10.5
		c11.8,1.3,15.7,10.5,15.7,10.5H769.8z"/>
</g>
<g>
	<g>
		<path d="M624.1,55.4c-19.3,0-34.9,15.6-34.9,34.9s15.6,34.9,34.9,34.9c19.3,0,34.9-15.6,34.9-34.9S643.3,55.4,624.1,55.4z
			 M624.1,109.9c-10.9,0-19.7-8.8-19.7-19.7s8.8-19.7,19.7-19.7c10.9,0,19.7,8.8,19.7,19.7S634.9,109.9,624.1,109.9z"/>
	</g>
	<path class="st2" d="M640.4,79.2l8.2-13.3l-12.7,8.5C637.6,75.8,639.1,77.4,640.4,79.2z"/>
	<path class="st2" d="M605.1,95.2l-13,8.8c3.9,9.2,11.7,16.3,21.2,19.4l8.4-13.6C613.6,108.7,607.1,102.9,605.1,95.2z"/>
</g>
</svg>
