<?xml version="1.0" encoding="utf-8"?>
<!-- Generator: Adobe Illustrator 24.1.0, SVG Export Plug-In . SVG Version: 6.00 Build 0)  -->
<svg version="1.1" id="Layer_1" xmlns="http://www.w3.org/2000/svg" xmlns:xlink="http://www.w3.org/1999/xlink" x="0px" y="0px"
	 viewBox="0 0 1000 230" style="enable-background:new 0 0 1000 230;" xml:space="preserve">
<style type="text/css">
	.st0{fill:#000000;}
	.st1{fill:#F36B21;}
</style>
<g>
	<path class="st0" d="M610.02,105.27c0,15.71-10.75,27.29-23.57,27.29c-12.82,0-23.57-11.58-23.57-27.29
		c0-15.71,10.75-26.88,23.57-26.88C599.27,78.39,610.02,89.56,610.02,105.27 M641.45,105.27c0-30.18-20.26-55-47.55-55
		c-11.03,0-20.22,4.48-25.8,8.88V27.87c0-4.34-1.24-5.58-5.58-5.58h-20.47c-4.34,0-5.58,1.24-5.58,5.58v124.34
		c0,4.34,1.24,5.58,5.58,5.58h9.51c3.31,0,4.34-1.66,6.62-5.58l2.39-4.3c8.73,7.76,19.4,12.16,33.33,12.16
		C621.19,160.06,641.45,134.42,641.45,105.27 M677.7,152.21V27.87c0-4.34-1.24-5.58-5.58-5.58h-20.47c-4.34,0-5.58,1.24-5.58,5.58
		v124.34c0,4.34,1.24,5.58,5.58,5.58h20.47C676.46,157.79,677.7,156.55,677.7,152.21 M762.14,105.27
		c0,15.71-10.75,27.29-23.57,27.29c-12.82,0-23.57-11.58-23.57-27.29c0-15.71,10.75-26.88,23.57-26.88
		C751.39,78.39,762.14,89.56,762.14,105.27 M788.55,152.21v-14.76v-66.9V58.13c0-4.34-1.24-5.58-5.58-5.58h-9.51
		c-3.31,0-4.34,1.65-6.62,5.58l-2.64,4.75c-13.19-10.33-22.05-12.6-33.08-12.6c-27.29,0-47.55,24.81-47.55,55
		c0,29.15,20.26,54.79,47.55,54.79c13.93,0,24.6-4.39,33.33-12.16l2.39,4.3c2.27,3.93,3.31,5.58,6.62,5.58h9.51
		C787.31,157.79,788.55,156.55,788.55,152.21 M825.99,105.27c0-15.71,10.75-26.88,23.57-26.88c4.96,0,12.61,0.41,19.02,6.41
		c1.24,1.24,2.27,1.86,3.31,1.86c1.45,0,2.69-1.24,4.55-3.1l10.34-11.37c2.69-3.1,3.31-4.13,1.03-6.41
		c-10.54-10.34-23.98-15.51-38.25-15.51c-30.19,0-54.79,24.81-54.79,55c0,30.19,24.61,54.79,54.79,54.79
		c14.27,0,27.71-5.17,38.25-15.51c2.27-2.27,1.66-3.31-1.03-6.41l-10.34-11.37c-1.86-1.86-3.1-3.1-4.55-3.1
		c-1.03,0-2.07,0.62-3.31,1.86c-6.41,6-14.06,6.41-19.02,6.41C836.74,131.94,825.99,120.98,825.99,105.27 M996.52,152.21
		l-35.88-47.39l24.95-47.09c1.24-2.35-0.46-5.17-3.11-5.17h-25.73c-1.31,0-2.5,0.72-3.11,1.87L931.81,95.6
		c-0.53,1.01-1.65,1.56-2.77,1.36c-1.27-0.22-2.19-1.31-2.19-2.6v-66.5c0-3.08-2.5-5.58-5.58-5.58h-20.47
		c-3.08,0-5.58,2.5-5.58,5.58v124.34c0,3.08,2.5,5.58,5.58,5.58h20.47c3.08,0,5.58-2.5,5.58-5.58v-34.49c0-2.62,3.35-3.72,4.9-1.6
		l26.32,36.09c3.31,4.34,4.34,5.58,8.06,5.58h27.91C997.56,157.79,1000.66,157.17,996.52,152.21"/>
	<path class="st0" d="M111.1,58.07v94.08c0,4.34,1.24,5.58,5.58,5.58h20.47c4.34,0,5.58-1.24,5.58-5.58V58.07
		c0-4.34-1.24-5.58-5.58-5.58h-20.47C112.34,52.48,111.1,53.73,111.1,58.07 M97.44,152.14V99.01c0-38.05-15.92-48.8-39.49-48.8
		c-14.68,0-22.12,6.62-30.18,15.3l-4.14-7.44c-2.27-3.93-3.31-5.58-6.62-5.58H7.08c-4.34,0-5.58,1.24-5.58,5.58v94.08
		c0,4.34,1.24,5.58,5.58,5.58h20.47c4.34,0,5.58-1.24,5.58-5.58v-46.93c0-18.82,3.93-26.88,16.75-26.88
		c12.41,0,15.92,8.06,15.92,26.88v46.93c0,4.34,1.24,5.58,5.58,5.58h20.47C96.2,157.73,97.44,156.48,97.44,152.14 M254.13,152.14
		V99.01c0-38.05-15.93-48.8-39.5-48.8c-14.67,0-22.12,6.62-30.18,15.3l-4.14-7.44c-2.27-3.93-3.31-5.58-6.62-5.58h-9.92
		c-4.34,0-5.59,1.24-5.59,5.58v94.08c0,4.34,1.24,5.58,5.59,5.58h20.47c4.34,0,5.59-1.24,5.59-5.58v-46.93
		c0-18.82,3.92-26.88,16.75-26.88c12.4,0,15.91,8.06,15.91,26.88v46.93c0,4.34,1.24,5.58,5.59,5.58h20.47
		C252.89,157.73,254.13,156.48,254.13,152.14 M336.39,95.08h-40.94c2.89-10.75,10.13-19.23,20.88-19.23
		C329.77,75.85,334.32,86.4,336.39,95.08 M368.65,109.14c0-30.81-16.33-58.93-51.69-58.93c-30.19,0-54.79,24.81-54.79,55
		c0,30.18,24.61,54.79,55.83,54.79c15.3,0,32.46-5.17,41.97-14.68c2.27-2.27,1.45-3.93-1.03-7.03l-8.06-10.13
		c-1.24-1.66-2.27-2.27-3.31-2.27c-1.24,0-2.48,0.83-4.75,1.86c-11.58,5.17-19.44,5.38-24.19,5.38c-9.1,0-20.06-3.72-23.36-18.19
		l68.23,0.21C367.82,115.13,368.65,113.69,368.65,109.14 M525.35,52.48h-25.73c-1.31,0-2.51,0.72-3.11,1.87l-23.57,44.48
		l-18.4-40.77c-2.27-4.34-3.52-5.58-7.23-5.58h-13.27h-6.26h-10.67V33.46c0-4.34-1.24-5.58-5.58-5.58h-20.26
		c-4.34,0-5.58,1.24-5.58,5.58v19.02h-11.18c-4.34,0-5.58,1.24-5.58,5.58v13.65c0,4.34,1.24,5.58,5.58,5.58h10.92v74.85
		c0,4.34,1.24,5.58,5.58,5.58h20.47c4.34,0,5.58-1.24,5.58-5.58v-38.9c0.01-0.13,0.06-0.26,0.06-0.38V77.3h12.15l25.58,55.71
		l-23.08,43.55c-1.24,2.34,0.46,5.17,3.11,5.17h25.74c1.3,0,2.5-0.72,3.11-1.87l64.75-122.2C529.7,55.31,528.01,52.48,525.35,52.48"
		/>
	<path class="st1" d="M145.01,21.06c0-10.13-8.27-18.4-18.4-18.4c-10.13,0-17.99,8.27-17.99,18.4c0,10.13,7.86,17.99,17.99,17.99
		C136.74,39.05,145.01,31.19,145.01,21.06"/>
	<path class="st1" d="M134.36,210.44c0,4.7-3.13,9.06-8.43,9.06h-5.41v-18.12h5.41C131.23,201.37,134.36,205.66,134.36,210.44
		 M139.17,210.44c0-7.42-5.84-13.05-13.19-13.05h-9.39c-0.63,0-0.82,0.19-0.82,0.82v24.45c0,0.63,0.22,0.82,0.82,0.82h9.39
		C133.32,223.48,139.17,217.86,139.17,210.44 M167.89,222.66v-2.42c0-0.63-0.19-0.82-0.82-0.82h-12.86v-7.05h12.3
		c0.63,0,0.82-0.18,0.82-0.82v-2.42c0-0.63-0.18-0.82-0.82-0.82h-12.3v-6.87h12.86c0.63,0,0.82-0.18,0.82-0.82v-2.42
		c0-0.63-0.19-0.82-0.82-0.82h-16.81c-0.63,0-0.82,0.19-0.82,0.82v24.45c0,0.63,0.19,0.82,0.82,0.82h16.81
		C167.7,223.48,167.89,223.29,167.89,222.66 M182.17,204.92c0-1.79,1.19-3.8,5.33-3.8c2.43,0,4.48,0.63,6.68,2.16
		c0.18,0.11,0.33,0.18,0.48,0.18c0.26,0,0.45-0.22,0.63-0.6l1.19-1.97c0.26-0.52,0.33-0.78-0.19-1.16c-2.68-1.78-5.25-2.83-8.8-2.83
		c-7.6,0-10.02,4.8-10.02,8.31c0,5.23,4.61,6.68,8.68,7.2c4.07,0.52,6.45,1.16,6.45,3.8c0,2.57-2.16,3.54-5.3,3.54
		c-2.57,0-5.37-0.67-7.75-2.2c-0.19-0.15-0.34-0.18-0.49-0.18c-0.25,0-0.4,0.18-0.63,0.56l-1.19,1.97
		c-0.26,0.56-0.33,0.78,0.23,1.16c2.71,1.9,6.11,2.9,9.61,2.9c6.9,0,10.21-3.87,10.21-7.97c0-5.59-4.47-7.05-8.95-7.57
		C184.59,207.94,182.17,207.34,182.17,204.92 M212.43,222.67v-24.46c0-0.63-0.19-0.82-0.82-0.82h-3.12c-0.63,0-0.82,0.19-0.82,0.82
		v24.46c0,0.63,0.19,0.82,0.82,0.82h3.12C212.24,223.49,212.43,223.3,212.43,222.67 M246.02,220.05c0.41-0.41,0.6-0.75,0.6-1.34
		v-8.5c0-0.63-0.15-0.82-0.82-0.82h-9.02c-0.63,0-0.82,0.19-0.82,0.82v2.42c0,0.63,0.19,0.82,0.82,0.82h5.07v4.36
		c-1.45,1.12-3.54,1.94-5.85,1.94c-5.11,0-8.54-4.63-8.54-9.32c0-4.77,3.43-9.32,8.54-9.32c2.61,0,4.92,0.97,6.67,2.83
		c0.22,0.23,0.41,0.34,0.6,0.34c0.18,0,0.37-0.15,0.6-0.41l1.83-1.97c0.41-0.48,0.52-0.71,0.07-1.16c-2.42-2.34-6.15-3.83-9.77-3.83
		c-7.35,0-13.38,6.11-13.38,13.53c0,7.42,6.03,13.53,13.38,13.53C239.65,223.97,243.56,222.48,246.02,220.05 M280.08,223.67v-25.46
		c0-0.63-0.15-0.82-0.82-0.82h-3.1c-0.67,0-0.86,0.19-0.86,0.82v15.51l-16.44-16.51c-0.18-0.23-0.37-0.3-0.6-0.3h-0.33
		c-0.26,0-0.34,0.04-0.34,0.3v25.42c0,0.67,0.22,0.86,0.82,0.86h3.13c0.63,0,0.82-0.19,0.82-0.86v-15.58l16.44,16.63
		c0.22,0.23,0.41,0.3,0.63,0.3h0.33C280,223.97,280.08,223.93,280.08,223.67 M368.16,198.21c0.26-0.63,0.19-0.82-0.41-0.82h-3.84
		c-0.6,0-0.86,0.19-1.08,0.82l-5.52,15.47l-5.81-15.99c-0.04-0.11-0.08-0.23-0.15-0.3c-0.15-0.33-0.26-0.48-0.48-0.48h-0.6
		c-0.22,0-0.33,0.15-0.48,0.48c-0.03,0.07-0.07,0.19-0.11,0.3l-5.85,15.99l-5.52-15.47c-0.22-0.63-0.48-0.82-1.08-0.82h-3.84
		c-0.6,0-0.67,0.19-0.37,0.82l9.81,25.01c0.26,0.56,0.37,0.82,0.6,0.82h0.33c0.26,0,0.37-0.3,0.6-0.82l6.22-16.81l6.22,16.81
		c0.22,0.56,0.37,0.82,0.6,0.82h0.33c0.26,0,0.38-0.26,0.6-0.82L368.16,198.21z M395.43,222.66v-2.42c0-0.63-0.18-0.82-0.82-0.82
		h-12.86v-7.05h12.3c0.63,0,0.82-0.18,0.82-0.82v-2.42c0-0.63-0.19-0.82-0.82-0.82h-12.3v-6.87h12.86c0.63,0,0.82-0.18,0.82-0.82
		v-2.42c0-0.63-0.18-0.82-0.82-0.82h-16.81c-0.63,0-0.82,0.19-0.82,0.82v24.45c0,0.63,0.18,0.82,0.82,0.82h16.81
		C395.25,223.48,395.43,223.29,395.43,222.66 M421.93,215.81c0,2.42-1.42,3.69-4.85,3.69h-6.04v-7.35h6.19
		C420.14,212.15,421.93,213.83,421.93,215.81 M421,205.07c0,1.83-1.57,3.24-4.44,3.24h-5.52v-6.94h5.14
		C419.32,201.37,421,202.53,421,205.07 M422.12,210.06v-0.04c1.63-0.86,3.61-2.5,3.61-5.41c0-5.48-5.1-7.23-9.36-7.23h-9.28
		c-0.63,0-0.81,0.19-0.81,0.82v24.45c0,0.63,0.19,0.82,0.81,0.82h10.22c4.93,0,9.39-1.86,9.39-7.23
		C426.7,212.52,423.86,210.81,422.12,210.06 M511.95,222.63l-3.13-25.39c-0.04-0.26-0.08-0.33-0.34-0.33h-0.45
		c-0.15,0-0.3,0.04-0.45,0.33l-11.85,19.24l-11.85-19.24c-0.19-0.3-0.3-0.33-0.45-0.33h-0.45c-0.26,0-0.3,0.07-0.33,0.33
		l-3.17,25.39c-0.11,0.63,0.19,0.86,0.82,0.86h3.13c0.63,0,0.71-0.19,0.82-0.86l1.68-13.79l8.72,14.28
		c0.15,0.33,0.48,0.86,0.86,0.86h0.41c0.41,0,0.71-0.52,0.9-0.86l8.83-14.39l1.53,13.9c0.07,0.67,0.22,0.86,0.86,0.86h3.13
		C511.8,223.49,512.02,223.26,511.95,222.63 M537.73,213.72h-8.35l4.14-8.8h0.08L537.73,213.72z M546.42,223.48
		c0.48,0,0.75-0.41,0.52-0.82l-12.68-25.01c-0.3-0.52-0.37-0.82-0.67-0.82h-0.12c-0.26,0-0.37,0.3-0.67,0.82l-12.68,25.01
		c-0.19,0.41,0.04,0.82,0.52,0.82h3.69c0.56,0,0.75-0.19,1.08-0.82l2.35-4.88h11.56l2.35,4.88c0.33,0.63,0.52,0.82,1.08,0.82H546.42
		z M565.46,209.13h-5v-7.76h5c3.13,0,4.88,1.16,4.88,3.85C570.34,207.75,568.82,209.13,565.46,209.13 M575.93,222.44l-6.63-9.77
		c3.21-0.93,5.66-3.17,5.66-7.45c0-6.04-5.06-7.83-9.32-7.83h-9.09c-0.67,0-0.86,0.19-0.86,0.82v24.41c0,0.67,0.18,0.86,0.86,0.86
		h3.09c0.63,0,0.82-0.19,0.82-0.86v-9.51h3.73l6.42,9.51c0.41,0.6,0.78,0.86,1.45,0.86h3.17
		C575.89,223.48,576.38,223.18,575.93,222.44 M606.68,222.63l-11.67-12.79l11.18-11.63c0.48-0.52,0.26-0.82-0.33-0.82h-4.1
		c-0.56,0-0.75,0.19-1.34,0.82l-9.84,10.25v-10.25c0-0.63-0.19-0.82-0.81-0.82h-3.13c-0.63,0-0.82,0.19-0.82,0.82v24.42
		c0,0.67,0.19,0.86,0.82,0.86h3.13c0.63,0,0.81-0.19,0.81-0.86v-11.3l10.29,11.3c0.52,0.63,0.75,0.86,1.3,0.86h4.18
		C606.83,223.49,607.2,223.26,606.68,222.63 M634.28,222.66v-2.42c0-0.63-0.19-0.82-0.82-0.82H620.6v-7.05h12.3
		c0.63,0,0.82-0.18,0.82-0.82v-2.42c0-0.63-0.18-0.82-0.82-0.82h-12.3v-6.87h12.86c0.63,0,0.82-0.18,0.82-0.82v-2.42
		c0-0.63-0.19-0.82-0.82-0.82h-16.81c-0.63,0-0.82,0.19-0.82,0.82v24.45c0,0.63,0.19,0.82,0.82,0.82h16.81
		C634.09,223.48,634.28,223.29,634.28,222.66 M664.94,200.81v-2.6c0-0.63-0.15-0.82-0.82-0.82h-20.79c-0.63,0-0.82,0.19-0.82,0.82
		v2.6c0,0.63,0.19,0.82,0.82,0.82h8.01v21.02c0,0.63,0.18,0.82,0.82,0.82h3.13c0.63,0,0.82-0.19,0.82-0.82v-21.02h8.01
		C664.75,201.64,664.94,201.45,664.94,200.81 M678.45,222.67v-24.46c0-0.63-0.18-0.82-0.82-0.82h-3.13c-0.63,0-0.82,0.19-0.82,0.82
		v24.46c0,0.63,0.18,0.82,0.82,0.82h3.13C678.27,223.49,678.45,223.3,678.45,222.67 M712.69,223.67v-25.46
		c0-0.63-0.15-0.82-0.82-0.82h-3.09c-0.67,0-0.86,0.19-0.86,0.82v15.51l-16.44-16.51c-0.19-0.23-0.37-0.3-0.6-0.3h-0.34
		c-0.26,0-0.33,0.04-0.33,0.3v25.42c0,0.67,0.22,0.86,0.82,0.86h3.13c0.63,0,0.82-0.19,0.82-0.86v-15.58l16.44,16.63
		c0.22,0.23,0.4,0.3,0.63,0.3h0.34C712.61,223.97,712.69,223.93,712.69,223.67 M746.95,218.71v-8.5c0-0.63-0.15-0.82-0.82-0.82
		h-9.02c-0.63,0-0.82,0.19-0.82,0.82v2.42c0,0.63,0.19,0.82,0.82,0.82h5.07v4.36c-1.45,1.12-3.54,1.94-5.85,1.94
		c-5.11,0-8.54-4.63-8.54-9.32c0-4.77,3.43-9.32,8.54-9.32c2.61,0,4.92,0.97,6.67,2.83c0.23,0.23,0.41,0.34,0.6,0.34
		c0.18,0,0.37-0.15,0.6-0.41l1.83-1.97c0.41-0.48,0.52-0.71,0.08-1.16c-2.42-2.34-6.15-3.83-9.77-3.83
		c-7.35,0-13.38,6.11-13.38,13.53c0,7.42,6.03,13.53,13.38,13.53c3.65,0,7.57-1.49,10.03-3.91
		C746.76,219.65,746.95,219.31,746.95,218.71"/>
	<path class="st0" d="M943.36,197.21v25.42c0,0.67,0.22,0.86,0.82,0.86h3.13c0.63,0,0.82-0.19,0.82-0.86v-15.58l16.44,16.63
		c0.22,0.23,0.41,0.3,0.63,0.3h0.33c0.22,0,0.3-0.04,0.3-0.3v-25.46c0-0.63-0.15-0.82-0.82-0.82h-3.09c-0.67,0-0.86,0.18-0.86,0.82
		v15.51l-16.44-16.51c-0.18-0.23-0.37-0.3-0.6-0.3h-0.33C943.43,196.91,943.36,196.94,943.36,197.21 M917.02,213.72l4.14-8.8h0.08
		l4.14,8.8H917.02z M920.45,197.65l-12.67,25.01c-0.18,0.41,0.04,0.82,0.52,0.82h3.69c0.56,0,0.75-0.18,1.08-0.82l2.34-4.88h11.56
		l2.35,4.88c0.34,0.63,0.52,0.82,1.08,0.82h3.65c0.48,0,0.75-0.41,0.52-0.82l-12.68-25.01c-0.3-0.52-0.37-0.82-0.67-0.82h-0.11
		C920.86,196.83,920.75,197.13,920.45,197.65 M844.35,197.24l-3.17,25.39c-0.12,0.63,0.18,0.86,0.82,0.86h3.13
		c0.63,0,0.71-0.19,0.82-0.86l1.68-13.79l8.72,14.28c0.15,0.33,0.49,0.86,0.86,0.86h0.41c0.41,0,0.71-0.52,0.9-0.86l8.83-14.39
		l1.53,13.9c0.08,0.67,0.22,0.86,0.86,0.86h3.13c0.63,0,0.86-0.22,0.78-0.86l-3.13-25.39c-0.04-0.26-0.07-0.33-0.33-0.33h-0.45
		c-0.15,0-0.3,0.04-0.45,0.33l-11.85,19.24l-11.86-19.24c-0.18-0.3-0.3-0.33-0.45-0.33h-0.45
		C844.43,196.91,844.39,196.98,844.35,197.24 M810.42,210.43c0-4.77,3.43-9.32,8.54-9.32c5.26,0,8.58,4.55,8.58,9.32
		c0,4.7-3.32,9.32-8.58,9.32C813.85,219.75,810.42,215.13,810.42,210.43 M805.58,210.43c0,7.42,6.07,13.53,13.38,13.53
		c7.38,0,13.42-6.12,13.42-13.53c0-7.42-6.04-13.53-13.42-13.53C811.65,196.91,805.58,203.01,805.58,210.43 M448.24,203.13
		l5.14,6.52l-5.14,6.52c-0.37,0.48-0.33,0.78,0.15,1.12l1.75,1.01c0.23,0.15,0.37,0.22,0.52,0.22c0.19,0,0.37-0.15,0.63-0.41
		l6.07-6.82c0.56-0.63,0.67-1.15,0.67-1.53v-0.26c0-0.37-0.11-0.9-0.67-1.49l-6.07-6.82c-0.26-0.26-0.45-0.41-0.63-0.41
		c-0.15,0-0.3,0.07-0.52,0.22l-1.75,1.01C447.87,202.31,447.87,202.65,448.24,203.13 M303.41,203.13l5.14,6.52l-5.14,6.52
		c-0.37,0.48-0.33,0.78,0.15,1.12l1.75,1.01c0.22,0.15,0.37,0.22,0.52,0.22c0.19,0,0.37-0.15,0.63-0.41l6.07-6.82
		c0.56-0.63,0.67-1.15,0.67-1.53v-0.26c0-0.37-0.11-0.9-0.67-1.49l-6.07-6.82c-0.26-0.26-0.45-0.41-0.63-0.41
		c-0.15,0-0.3,0.07-0.52,0.22l-1.75,1.01C303.04,202.31,303.04,202.65,303.41,203.13 M68.23,198.21v24.45
		c0,0.63,0.19,0.82,0.82,0.82h16.81c0.63,0,0.82-0.19,0.82-0.82v-2.42c0-0.63-0.19-0.82-0.82-0.82H73v-7.05h12.3
		c0.63,0,0.82-0.18,0.82-0.82v-2.42c0-0.63-0.18-0.82-0.82-0.82H73v-6.87h12.86c0.63,0,0.82-0.18,0.82-0.82v-2.42
		c0-0.63-0.19-0.82-0.82-0.82H69.06C68.42,197.39,68.23,197.58,68.23,198.21 M34.63,198.21v24.45c0,0.63,0.19,0.82,0.82,0.82h3.13
		c0.63,0,0.82-0.19,0.82-0.82v-10.1h12.23v10.1c0,0.63,0.18,0.82,0.86,0.82h3.09c0.63,0,0.82-0.19,0.82-0.82v-24.45
		c0-0.63-0.19-0.82-0.82-0.82h-3.09c-0.67,0-0.86,0.19-0.86,0.82v10.21H39.4v-10.21c0-0.63-0.18-0.82-0.82-0.82h-3.13
		C34.82,197.39,34.63,197.58,34.63,198.21 M25.03,197.39H4.23c-0.63,0-0.82,0.19-0.82,0.82v2.6c0,0.63,0.19,0.82,0.82,0.82h8.01
		v21.02c0,0.63,0.19,0.82,0.82,0.82h3.13c0.63,0,0.82-0.19,0.82-0.82v-21.02h8.01c0.63,0,0.82-0.19,0.82-0.82v-2.6
		C25.85,197.58,25.7,197.39,25.03,197.39 M779.34,210.44c0-4.74,3.43-9.32,8.57-9.32c2.8,0,5,1.12,6.64,2.87
		c0.22,0.22,0.41,0.3,0.6,0.3c0.18,0,0.37-0.11,0.6-0.37l1.86-2.01c0.41-0.49,0.52-0.71,0.08-1.16c-2.39-2.38-6.15-3.83-9.77-3.83
		c-7.34,0-13.41,6.11-13.41,13.53c0,7.42,6.07,13.53,13.41,13.53c3.62,0,7.38-1.49,9.77-3.83c0.45-0.48,0.37-0.71-0.08-1.19
		l-1.82-2.01c-0.23-0.22-0.41-0.37-0.6-0.37c-0.18,0-0.37,0.08-0.6,0.3c-1.68,1.75-3.88,2.91-6.67,2.91
		C782.76,219.76,779.34,215.13,779.34,210.44 M898.94,205.22c0,2.27-1.27,3.91-4.93,3.91h-4.96v-7.76h4.96
		C897.68,201.37,898.94,202.98,898.94,205.22 M894.2,197.39h-9.09c-0.63,0-0.82,0.15-0.82,0.82v24.45c0,0.63,0.18,0.82,0.82,0.82
		h3.13c0.63,0,0.82-0.18,0.82-0.82v-9.54h5.14c4.37,0,9.36-1.86,9.36-7.9C903.56,199.18,898.57,197.39,894.2,197.39 M997.91,197.39
		h-3.5c-0.56,0-0.71,0.18-1.12,0.82l-6.78,11.33l-6.75-11.33c-0.37-0.63-0.52-0.82-1.08-0.82h-3.62c-0.56,0-0.75,0.18-0.37,0.82
		l9.51,15.47v8.98c0,0.63,0.18,0.82,0.82,0.82H988c0.63,0,0.82-0.19,0.82-0.82v-8.98l9.51-15.47
		C998.66,197.57,998.51,197.39,997.91,197.39"/>
</g>
</svg>
