<svg xmlns="http://www.w3.org/2000/svg" xmlns:xlink="http://www.w3.org/1999/xlink" version="1.1" x="0px" y="0px" viewBox="0 0 132.8 100" style="enable-background:new 0 0 132.8 100;" xml:space="preserve">
<path fill="#dd291e" d="M96.42,35.22l-0.16-4.94l6.73-7.04c0.61,1.05,2.77,4.37,5.95,4.93c3.78,0.66,7.55-2.85,7.55-2.85s-2.35-4.59-6.13-5.25  c-2.19-0.38-4.37,0.63-5.82,1.55l4.14-4.33l-0.48-0.48L96.18,27.78l-0.5-15.1c1.06,0.24,5.13,0.98,7.75-1.04c3.04-2.34,3-7.5,3-7.5  s-4.98-1.37-8.02,0.97c-1.8,1.38-2.51,3.74-2.8,5.45L95.53,8.5h-0.68l-0.17,4.99c-0.34-2.26-1.19-4.97-3.19-6.78  c-4-3.62-11.12-2.27-11.12-2.27s-0.63,7.22,3.37,10.84c3.5,3.16,9.36,2.53,10.8,2.32l-0.59,17.61H64.83v60.6h60.6v-60.6H96.42z   M77.29,58.45v12.99h1.17v1.18l-4.68,0v-1.17h1.17V58.45H71.9v1.23h-1.23v-1.23v-1.17h10.92v1.15v0.02v1.23h-1.23v-1.23H77.29z   M88.61,64.67h-1.18v-1.17c-0.78-0.02-1.78,0.27-2.57,0.89v7.06h1.17v1.18l-4.68,0v-1.17h1.17l0-8.22l-1.17,0v-1.17l3.51,0v0.84  c1.04-0.84,2.35-1.21,3.67-1.21l0.07,0.97V64.67z M101.57,72.65H98.2c0-0.2,0-0.67,0-0.87c-0.86,0.52-1.89,1.07-3.31,1.07  c-1.95,0-3.47-0.63-3.47-4.08c0,0-0.04-4.44-0.04-5.61h-1.17v-1.17h3.46l0,5v2.38c0,0.97,0.78,1.75,1.75,1.75c0,0,0.16,0,0.24,0  c0.9,0,1.6-0.27,2.48-0.85c0,0,0-5.93,0-7.1h-1.17v-1.17h3.44l0,9.49h1.18V72.65z M106.6,72.86c-1.38,0-2.29-0.36-3.35-0.88  l0.2-2.27h1.18c0.01,0.04,0.28,1.32,0.32,1.54c0.49,0.21,1.04,0.27,1.57,0.27c0.86,0,1.52-0.13,1.9-0.44c0,0,0.12-0.36,0.12-0.94  c0-2.83-5.43-1.7-5.43-5.32c0-2.18,1.57-3.27,3.95-3.27c1.34,0,2.25,0.36,3.31,0.88l-0.2,2.27H109c-0.04-0.2-0.29-1.34-0.32-1.54  c-0.56-0.21-1.02-0.27-1.54-0.27c-0.78,0-1.38,0.17-1.78,0.44c0,0-0.12,0.31-0.12,0.9c0,2.43,5.43,1.4,5.43,5.36  C110.67,71.77,109.02,72.86,106.6,72.86z M116.4,72.86c-1.44,0-3.01-0.42-3.01-3.04V63.2c0,0-1.43-0.27-1.43-0.27v-1.17h1.57  l0.44-3.22h1.62v3.22h2.79v1.45h-2.79v6.37c0,1.49,0.4,1.9,1.08,1.9c0.56,0,0.94-0.19,1.54-0.52l0.46,1.24  C118.22,72.46,117.4,72.86,116.4,72.86z"/>
<g>
	<path fill="#dd291e" d="M12.97,58H7.72v1.12h1.12l0,12.47H7.72v1.12l4.48,0v-1.13h-1.13V59.12h1.82c0.09,0,0.18,0.02,0.27,0.04   c0.03,0.01,0.06,0.01,0.09,0.01c0.09,0.02,0.17,0.05,0.25,0.08c0.9,0.3,1.55,1.14,1.55,2.14v0.24v0.24v0.79   c0,1.25-1.02,2.27-2.27,2.27h-1v1.11h0.99c2.52,0,4.53-1.36,4.53-4.17C17.31,58.87,15.2,58,12.97,58z"/>
	<rect fill="#dd291e" x="48.96" y="58.63" width="2.24" height="2.24"/>
	<path fill="#dd291e" d="M28.56,62.51h-3.3v1.13h1.13c0,1.12,0,6.81,0,6.81c-0.84,0.56-1.51,0.82-2.38,0.82c-0.07,0-0.23,0-0.23,0   c-0.93,0-1.68-0.75-1.68-1.68V67.3l0-4.8h-3.31v1.13h1.13c0,1.12,0.04,5.38,0.04,5.38c0,3.31,1.45,3.91,3.33,3.91   c1.36,0,2.35-0.52,3.17-1.02c0,0.18,0,0.64,0,0.83h3.23v-1.12h-1.13L28.56,62.51z"/>
	<polygon fill="#dd291e" points="51.2,62.5 47.84,62.5 47.84,63.63 48.97,63.63 48.97,71.6 47.84,71.6 47.84,72.73 52.33,72.73 52.33,71.6    51.2,71.6  "/>
	<path fill="#dd291e" d="M61.11,70.62c-0.65,0.43-1.37,0.85-2.15,0.96c-0.28,0.04-0.54,0-0.82-0.03c-1.37-0.2-2.32-1.43-2.32-3.15V66.7   c0-0.12,0.01-0.24,0.02-0.37c0.04-0.44,0.15-0.95,0.34-1.35c0.17-0.36,0.41-0.7,0.72-0.96c0.31-0.26,0.66-0.42,1.05-0.48   c0.38-0.06,0.85,0.01,1.22,0.12c0.45,0.14,0.8,0.32,1.2,0.59v1.13h1.12c0,0,0-1.81,0-1.81c-0.67-0.57-1.43-1.06-2.29-1.26   c-0.56-0.13-1.1-0.15-1.67-0.11c-0.24,0.02-0.6,0.07-0.86,0.14c-0.51,0.13-1,0.36-1.42,0.7c-0.48,0.39-0.84,0.91-1.07,1.48   c-0.33,0.79-0.45,1.65-0.47,2.5c0,0.1-0.01,0.21-0.01,0.32c0,1.95,0.56,3.48,1.56,4.44c0.14,0.15,0.29,0.29,0.48,0.43   c0.64,0.48,1.43,0.67,2.22,0.71c0.8,0.04,1.58-0.07,2.32-0.38c0.51-0.22,0.99-0.5,1.46-0.81L61.11,70.62z"/>
	<polygon fill="#dd291e" points="44.89,57.33 41.53,57.33 41.53,58.45 42.66,58.45 42.66,71.6 41.54,71.6 41.54,72.73 46.02,72.73 46.02,71.6    44.89,71.6  "/>
	<path fill="#dd291e" d="M40.06,65.06c-0.09-0.29-0.19-0.57-0.33-0.84c-0.12-0.24-0.26-0.46-0.43-0.67c-0.15-0.19-0.32-0.36-0.51-0.51   c-0.18-0.14-0.37-0.27-0.57-0.37c-0.2-0.1-0.4-0.19-0.61-0.25c-0.21-0.07-0.42-0.11-0.63-0.15c-0.25-0.04-0.5-0.07-0.75-0.06   c-0.47,0.03-0.95,0.12-1.39,0.3c-0.06,0.02-0.11,0.05-0.16,0.08l0-0.01c-0.01,0.01-0.53,0.25-0.96,0.52c0-1.92,0-5.77,0-5.77h-3.36   v1.12c0,0,1.12,0,1.12,0v13.54l0.12,0.07c1.17,0.7,3.21,0.86,4.3,0.86c0.99,0,1.81-0.27,2.41-0.72c0.18-0.14,0.34-0.28,0.48-0.43   c1-0.95,1.56-2.48,1.56-4.44c0-0.42-0.02-0.83-0.08-1.24C40.23,65.75,40.16,65.4,40.06,65.06z M38.22,68.4   c0,1.72-1.04,3.1-2.32,3.1c-0.53,0.02-1.38-0.01-2.19-0.15l0-6.98c0.14-0.17,0.39-0.39,0.81-0.57c0.45-0.17,0.93-0.27,1.44-0.28   c0.44,0.02,0.85,0.22,1.18,0.5c0.31,0.26,0.54,0.6,0.72,0.96c0.19,0.4,0.3,0.91,0.34,1.35c0.01,0.12,0.02,0.24,0.02,0.36V68.4z"/>
</g>
</svg>